<svg width="245" height="36" viewBox="0 0 245 36" fill="none" xmlns="http://www.w3.org/2000/svg">
<path d="M63.5775 23.4781V22.6381C63.5775 22.3881 63.5775 22.1781 63.5575 21.9381C63.5175 21.0781 63.3375 20.2381 63.0375 19.4381C62.7775 18.7281 62.3775 18.0681 61.8875 17.4981C61.4575 17.0081 60.9275 16.6181 60.3475 16.3281C59.7175 16.0281 59.0275 15.8481 58.3375 15.7881C57.9275 15.7481 57.5075 15.7481 57.0975 15.7681H57.0675C56.9975 15.7681 56.9375 15.7781 56.8675 15.7881C56.7975 15.7881 56.6875 15.8081 56.5975 15.8181C52.9975 16.2381 51.0275 18.8581 51.0275 21.8581V35.1981H44.1875V0.0180664H51.0075V13.2481C51.0075 13.2481 52.8675 10.2981 57.2775 9.70805C57.6275 9.65805 57.9875 9.62806 58.3275 9.61806C60.0775 9.53806 61.8275 9.83807 63.4475 10.5181C65.0475 11.1781 66.4575 12.2281 67.5475 13.5581C68.5075 14.7481 69.2375 16.1081 69.6875 17.5681C70.0975 18.8881 70.3275 20.2681 70.3775 21.6481L70.4075 35.1881H63.5775V28.4881L63.5975 23.4581L63.5775 23.4781Z" fill="#194039"/>
<path d="M100.848 10.0779V35.2079H94.0184V32.0379C94.0184 32.0379 92.1684 34.9879 87.7684 35.5779C87.4184 35.6179 87.0584 35.6579 86.7184 35.6679C84.9684 35.7479 83.2185 35.4479 81.6085 34.7779C80.0085 34.1079 78.5984 33.0679 77.5084 31.7379C76.5484 30.5479 75.8184 29.1879 75.3684 27.7279C74.9584 26.3979 74.7284 25.0279 74.6784 23.6379L74.6484 10.0979H81.4785V22.6679C81.4785 22.9179 81.4784 23.1379 81.4984 23.3679C81.5384 24.2279 81.7084 25.0679 82.0084 25.8679C82.2684 26.5779 82.6685 27.2379 83.1685 27.8079C83.5985 28.2979 84.1284 28.6879 84.7084 28.9779C85.3384 29.2779 86.0284 29.4579 86.7184 29.5079C87.1284 29.5479 87.5484 29.5579 87.9584 29.5279H87.9884C88.0584 29.5279 88.1184 29.5179 88.1884 29.5079C88.2484 29.5079 88.3684 29.4879 88.4584 29.4779C92.0584 29.0579 94.0284 26.4379 94.0284 23.4379V10.1079H100.848V10.0779Z" fill="#194039"/>
<path d="M146.723 35.2079H139.893C139.813 30.8179 139.853 26.428 139.893 22.028V20.4579C139.903 20.0379 139.873 19.628 139.813 19.218C139.753 18.838 139.663 18.4579 139.543 18.0979C139.433 17.7579 139.273 17.438 139.093 17.128C138.793 16.608 138.373 16.1579 137.873 15.8179C137.333 15.4579 136.703 15.238 136.053 15.188C135.833 15.158 135.603 15.148 135.383 15.138H135.073C134.763 15.138 134.453 15.1779 134.143 15.228C131.343 15.688 129.863 17.9279 129.853 20.8179C129.853 20.8879 129.833 20.948 129.833 21.018V35.198H123.023C122.943 30.808 122.983 26.408 123.023 22.018V20.448C123.023 20.028 123.003 19.6179 122.933 19.2079C122.873 18.8279 122.783 18.448 122.663 18.088C122.553 17.748 122.403 17.4279 122.213 17.1179C121.913 16.5879 121.493 16.148 120.993 15.808C120.443 15.448 119.823 15.2379 119.173 15.1779C118.933 15.1479 118.713 15.138 118.503 15.128H118.203C117.903 15.128 117.603 15.158 117.303 15.218C114.453 15.668 112.963 17.928 112.963 20.858V35.2079H106.133V10.0679H112.963V13.248C112.963 13.248 114.403 10.248 118.633 9.76796C118.813 9.74796 118.993 9.72796 119.183 9.71796C120.043 9.67796 120.913 9.72795 121.753 9.88795C122.633 10.058 123.493 10.3479 124.293 10.7379C125.823 11.5079 127.123 12.678 128.033 14.128C128.193 14.368 128.323 14.6179 128.453 14.8679C128.463 14.8379 128.473 14.808 128.483 14.778C129.063 13.358 130.043 12.148 131.303 11.268C132.643 10.318 134.423 9.79796 136.053 9.71796C136.913 9.67796 137.783 9.72795 138.623 9.88795C139.503 10.058 140.353 10.3479 141.153 10.7379C142.673 11.5079 143.963 12.678 144.873 14.128C145.283 14.768 145.613 15.458 145.883 16.168C146.133 16.848 146.323 17.5479 146.453 18.2579C146.573 18.9279 146.643 19.608 146.663 20.298L146.683 22.018C146.743 26.408 146.773 30.808 146.703 35.198" fill="#194039"/>
<path d="M174.547 22.6381C174.527 21.7381 174.327 20.8581 173.957 20.0381C173.567 19.2181 173.017 18.4881 172.337 17.8781C170.937 16.6381 169.147 15.9081 167.277 15.8081C166.297 15.7481 165.317 15.8281 164.367 16.0481C163.347 16.2781 162.377 16.6881 161.497 17.2581C160.597 17.8481 159.837 18.6381 159.287 19.5781C158.187 21.4781 158.187 23.8281 159.287 25.7281C159.837 26.6581 160.597 27.4481 161.497 28.0481C162.377 28.6181 163.347 29.0281 164.367 29.2481C165.317 29.4581 166.297 29.5381 167.277 29.4681C169.147 29.3681 170.927 28.6381 172.327 27.3981C173.007 26.7981 173.567 26.0681 173.947 25.2381C174.327 24.4281 174.527 23.5381 174.537 22.6381M181.337 22.6381C181.337 26.1181 179.907 29.4381 177.387 31.8381C176.067 33.1081 174.497 34.0981 172.787 34.7481C171.027 35.4181 169.147 35.7281 167.267 35.6781C165.417 35.6281 163.597 35.1781 161.927 34.3781C160.627 33.7381 159.447 32.8781 158.447 31.8381V35.2281H151.617V0.0380859H158.447V13.4781C159.457 12.4381 160.637 11.5681 161.937 10.9381C163.607 10.1381 165.417 9.68809 167.267 9.63809C169.147 9.58809 171.027 9.89809 172.787 10.5581C174.497 11.2081 176.067 12.1981 177.387 13.4681C179.897 15.8581 181.327 19.1781 181.337 22.6481" fill="#194039"/>
<path d="M204.109 18.508C202.439 16.318 199.439 15.248 196.469 16.048C193.499 16.848 191.439 19.268 191.069 21.988L204.109 18.498V18.508ZM210.699 21.868L192.399 26.768C194.209 28.918 197.529 29.888 200.869 29.008C203.139 28.398 205.019 27.028 206.119 25.278L213.059 26.058C211.359 30.278 207.419 33.668 202.469 34.998C194.479 37.138 186.469 33.228 184.609 26.288C182.749 19.348 187.339 12.068 194.839 10.058C202.339 8.04798 209.959 12.058 211.819 19.008C212.029 19.808 212.159 20.638 212.199 21.468L210.689 21.858L210.699 21.868Z" fill="#194039"/>
<path d="M235.179 18.508C233.499 16.318 230.499 15.248 227.529 16.048C224.569 16.848 222.499 19.268 222.129 21.988L235.179 18.498V18.508ZM241.769 21.868L223.469 26.768C225.279 28.918 228.599 29.888 231.939 29.008C234.209 28.398 236.089 27.028 237.189 25.278L244.129 26.058C242.419 30.278 238.489 33.668 233.539 34.998C225.549 37.138 217.539 33.228 215.679 26.288C213.819 19.348 218.409 12.068 225.909 10.058C233.409 8.04798 241.029 12.058 242.889 19.008C243.099 19.808 243.229 20.638 243.269 21.468L241.759 21.858L241.769 21.868Z" fill="#194039"/>
<path d="M17.64 35.2781C16.98 35.2781 16.32 35.2381 15.67 35.1681C15.1 35.1081 14.69 34.5881 14.76 34.0281C14.82 33.4581 15.34 33.0481 15.9 33.1181C16.48 33.1881 17.06 33.2181 17.64 33.2181C26.22 33.2181 33.2 26.2381 33.2 17.6581C33.2 9.07808 26.22 2.09807 17.64 2.09807C9.05998 2.09807 2.07999 9.07808 2.07999 17.6581C2.07999 18.2681 2.11999 18.8681 2.17999 19.4681C2.24999 20.0381 1.83999 20.5481 1.26999 20.6181C0.699989 20.6881 0.189995 20.2781 0.119995 19.7081C0.0399951 19.0281 0 18.3481 0 17.6581C0 7.92808 7.88997 0.0280762 17.63 0.0280762C22.3 0.0280762 26.79 1.88808 30.09 5.18808C36.97 12.0681 36.97 23.2281 30.09 30.1181C26.78 33.4281 22.3 35.2781 17.63 35.2781" fill="#194039"/>
<path d="M25.6276 8.89803C23.1776 6.57803 19.8376 5.43804 16.4776 5.77804C15.9376 5.83804 15.5477 6.31804 15.6077 6.85804C15.6277 7.04804 15.7077 7.22804 15.8277 7.37804C17.5277 9.44804 19.3577 11.408 21.3077 13.238C23.3277 15.138 25.4776 16.898 27.7276 18.518C28.1676 18.838 28.7877 18.728 29.1077 18.288C29.2177 18.128 29.2876 17.938 29.2876 17.738C29.3976 14.398 28.0676 11.178 25.6276 8.88804" fill="#F6AF31"/>
<path d="M20.0282 27.0879C17.4382 25.1979 14.9882 23.1379 12.6882 20.9079C10.9582 19.2379 9.31822 17.4679 7.77822 15.6279C7.42822 15.2079 6.8082 15.1579 6.3882 15.4979C6.1882 15.6679 6.0682 15.8979 6.0382 16.1579C5.7482 18.9779 6.48821 21.7979 8.11821 24.1079L9.7882 29.3179C9.8582 29.5179 10.0782 29.6179 10.2682 29.5479C10.3582 29.5179 10.4382 29.4479 10.4782 29.3579L11.4782 27.2679C13.8982 28.7679 16.7882 29.3279 19.5982 28.8479C20.1382 28.7579 20.4982 28.2479 20.4082 27.7079C20.3682 27.4479 20.2282 27.2279 20.0182 27.0679" fill="#F6AF31"/>
<path d="M27.3191 22.1079C24.1591 19.9379 21.1891 17.4979 18.4291 14.8279C16.2291 12.6979 14.1791 10.4279 12.2891 8.02791C11.9691 7.61791 11.3791 7.52792 10.9491 7.82792C10.2991 8.28792 9.69906 8.80792 9.15906 9.37792C8.90906 9.63792 8.67908 9.90791 8.46908 10.1779C8.18908 10.5279 8.18907 11.0279 8.45907 11.3779C10.5991 14.2279 12.9791 16.8779 15.5791 19.3179C18.2591 21.8379 21.1591 24.1179 24.2391 26.1279C24.6091 26.3679 25.0991 26.3379 25.4391 26.0379C25.6791 25.8179 25.9091 25.5979 26.1391 25.3579C26.6991 24.7679 27.1891 24.1179 27.6191 23.4179C27.8891 22.9679 27.7691 22.3879 27.3391 22.0879" fill="#F6AF31"/>
</svg>
