<?xml version="1.0" encoding="utf-8"?>
<!-- Generator: Adobe Illustrator 23.0.2, SVG Export Plug-In . SVG Version: 6.00 Build 0)  -->
<svg version="1.1" id="Laag_1" xmlns="http://www.w3.org/2000/svg" xmlns:xlink="http://www.w3.org/1999/xlink" x="0px" y="0px"
	 viewBox="0 0 216.8 40.8" style="enable-background:new 0 0 216.8 40.8;" xml:space="preserve">
<style type="text/css">
	.st0{fill:#00AAE4;}
	.st1{fill:#FFFFFF;}
	.st2{fill:#7AB51D;}
</style>
<g>
	<g>
		<g>
			<path d="M42.1,28.4c0.7,0.5,1.4,0.7,2.3,0.7h0.1c0.8,0,1.5-0.2,2.2-0.6c0.5-0.3,1-0.8,1.6-1.5c0.3-0.4,0.7-0.7,1.2-0.8
				c0.1,0,0.3-0.1,0.4-0.1c0.4,0,0.7,0.1,1,0.3c0.4,0.3,0.7,0.6,0.8,1.1c0,0.2,0,0.3,0,0.5c0,0.3-0.1,0.7-0.3,1
				c-1,1.3-2,2.2-2.9,2.7c-1.2,0.7-2.5,1-3.9,1c-0.4,0-0.8,0-1.2-0.1c-1.8-0.2-3.4-1-4.7-2.3c-0.7-0.7-1.3-1.5-1.7-2.4
				c0-0.1-0.1-0.1-0.1-0.2c0-0.1-0.1-0.2-0.1-0.2c-0.3-0.9-0.5-1.9-0.5-2.8c0-1,0.2-2.1,0.6-3.1c0.6-1.5,1.6-2.6,3-3.5
				c1.3-0.8,2.8-1.3,4.5-1.4h0.3c1.5,0,2.9,0.4,4.2,1.3c1.3,0.9,2.3,2.1,3,3.5c0,0,0,0.1,0.1,0.1c0,0,0,0,0,0v0l0,0v0c0,0,0,0,0,0v0
				c0,0,0,0,0,0v0c0,0,0,0,0,0.1v0h0v0.1c0,0,0,0.1,0,0.1v0.4c0,0,0,0,0,0v0.1c0,0,0,0.1,0,0.1v0c0,0,0,0,0,0v0c0,0,0,0,0,0l0,0
				c0,0,0,0,0,0c0,0,0,0,0,0l0,0v0l0,0l0,0l0,0l0,0c0,0,0,0,0,0c0,0,0,0,0,0c0,0,0,0,0,0l0,0l0,0l0,0l0,0c0,0,0,0,0,0c0,0,0,0,0,0.1
				l0,0c0,0,0,0,0,0l0,0l0,0l0,0c0,0,0,0,0,0l0,0c0,0,0,0,0,0c0,0,0,0-0.1,0.1l0,0c0,0,0,0,0,0c0,0,0,0-0.1,0v0l0,0c0,0,0,0,0,0
				c0,0,0,0,0,0c0,0,0,0-0.1,0c0,0,0,0,0,0L41.6,28C41.8,28.2,41.9,28.3,42.1,28.4z M45.2,20.6c-0.2,0-0.5,0-0.7,0
				c-1.5,0-2.7,0.6-3.6,1.9c-0.4,0.6-0.7,1.3-0.7,2.1l7.3-2.9C46.9,21.1,46.1,20.7,45.2,20.6z"/>
			<path d="M63.2,20.7c-0.4-0.1-0.8-0.2-1.2-0.2c-0.6,0-1.1,0.1-1.7,0.3c-1.1,0.5-1.9,1.2-2.4,2.4c-0.2,0.5-0.3,1.1-0.3,1.6
				c0,0.6,0.1,1.1,0.4,1.7c0.5,1.1,1.3,1.9,2.5,2.3c0.5,0.2,1.1,0.3,1.6,0.3c0.6,0,1.2-0.1,1.8-0.4c0.6-0.3,1.2-0.7,1.6-1.3
				c0.3-0.4,0.7-0.7,1.2-0.7c0.1,0,0.2,0,0.3,0c0.4,0,0.8,0.1,1.1,0.4c0.4,0.3,0.7,0.7,0.7,1.2c0,0.1,0,0.2,0,0.3
				c0,0.4-0.1,0.7-0.4,1.1c-1.2,1.4-2.6,2.4-4.4,2.9c-0.7,0.2-1.5,0.3-2.2,0.3c-1.1,0-2.1-0.2-3.1-0.6c-2.1-0.8-3.5-2.3-4.4-4.4
				c-0.4-1-0.6-2-0.6-3c0-1,0.2-2,0.7-3c0.5-1.2,1.3-2.2,2.3-3.1c1.1-0.9,2.2-1.4,3.5-1.6c0.5-0.1,1.1-0.1,1.6-0.1
				c1,0,2,0.2,2.9,0.5c1.5,0.5,2.7,1.4,3.7,2.7c0.3,0.3,0.4,0.7,0.4,1.1c0,0.1,0,0.2,0,0.3c-0.1,0.5-0.3,0.9-0.7,1.2
				c-0.3,0.2-0.7,0.4-1.1,0.4c-0.1,0-0.2,0-0.3,0c-0.5-0.1-0.9-0.3-1.2-0.7C64.9,21.5,64.1,20.9,63.2,20.7z"/>
			<path d="M78.7,16.8c2.3,0,4.2,0.9,5.8,2.4c1.5,1.5,2.3,3.4,2.3,5.6v0.1c0,2.2-0.8,4.1-2.4,5.6c-1.2,1.1-2.6,1.9-4.2,2.2
				c-0.6,0.1-1.1,0.2-1.6,0.2c-1.1,0-2.1-0.2-3.1-0.6c-1.5-0.6-2.7-1.6-3.6-3c-0.9-1.4-1.4-2.8-1.4-4.4c0-2.2,0.8-4,2.4-5.6
				c1.6-1.6,3.5-2.4,5.7-2.4H78.7z M75.6,21.8c-0.9,0.9-1.3,1.9-1.3,3c0,1,0.3,1.9,1,2.7c0.7,0.8,1.5,1.3,2.5,1.5
				c0.3,0.1,0.6,0.1,0.9,0.1c0.8,0,1.6-0.2,2.4-0.7c1-0.7,1.7-1.6,1.9-2.7c0.1-0.3,0.1-0.6,0.1-0.9c0-1-0.3-1.8-1-2.7
				c-0.9-1.1-2-1.6-3.4-1.6C77.5,20.5,76.5,21,75.6,21.8z"/>
			<path d="M93.5,30.6c-1.4-0.9-2.1-1.9-2.4-3.1l-0.2-3.8l0-4h-1.1c-0.3,0-0.6-0.1-0.8-0.3c-0.2-0.2-0.3-0.4-0.3-0.6
				c0-0.2,0.1-0.4,0.3-0.6c0.2-0.2,0.5-0.3,0.8-0.3h1.1v-5.2c0-0.2,0.1-0.4,0.3-0.6c0.2-0.2,0.5-0.3,0.8-0.3c0.3,0,0.6,0.1,0.8,0.3
				c0.2,0.2,0.3,0.4,0.3,0.6l0,5.2h3.4c0.3,0,0.6,0.1,0.8,0.3c0.2,0.2,0.3,0.4,0.3,0.6c0,0.2-0.1,0.4-0.3,0.6
				c-0.2,0.2-0.5,0.3-0.8,0.3h-3.4v4c0,0.1,0,0.5,0,1.1c0,0.2,0,0.5,0,0.7c0,0.2,0,0.4,0,0.6c0.1,1.2,0.5,2.1,1.2,2.7
				c1,0.9,2.2,1.4,3.6,1.4c0.3,0,0.6,0.1,0.8,0.3c0.2,0.2,0.3,0.4,0.3,0.6c0,0.2-0.1,0.4-0.3,0.7c-0.2,0.2-0.5,0.3-0.8,0.3
				C96.3,31.9,94.9,31.4,93.5,30.6z"/>
			<path d="M113.5,19.9c1.4,1.4,2.1,3,2.1,4.9V31c0,0.2-0.1,0.4-0.3,0.6c-0.3,0.2-0.7,0.2-1.2,0c-0.4-0.2-0.5-0.9-0.5-2.1
				c-0.9,1-2.2,1.8-4,2.3c-0.5,0.1-1,0.2-1.6,0.2c-1.4,0-2.8-0.4-4.1-1.2c-1.7-1.1-2.8-2.6-3.1-4.4c-0.1-0.5-0.2-0.9-0.2-1.4
				c0-1.1,0.3-2.2,0.8-3.2c0.8-1.5,2-2.6,3.6-3.2c1-0.4,2-0.6,3-0.6h0C110.3,17.8,112,18.5,113.5,19.9z M104.6,21.1
				c-1.1,1-1.6,2.3-1.6,3.7c0,1.3,0.4,2.4,1.2,3.4c0.8,0.9,1.8,1.5,2.9,1.8c0.4,0.1,0.7,0.1,1,0.1c1,0,1.9-0.3,2.8-0.8
				c1.3-0.8,2-1.9,2.3-3.3c0.1-0.4,0.1-0.8,0.1-1.1c0-1.2-0.4-2.3-1.2-3.3c-1.1-1.2-2.4-1.9-4-1.9C106.8,19.6,105.6,20.1,104.6,21.1
				z"/>
			<path d="M131.7,19.9c1.4,1.4,2.1,3,2.1,4.9c0,1.6-0.6,3.1-1.7,4.4c-1.1,1.3-2.5,2.2-4.2,2.5c-0.5,0.1-1,0.2-1.6,0.2
				c-2.2-0.1-3.9-0.7-5.1-1.9v7.1c0,0.2-0.1,0.4-0.3,0.6c-0.2,0.2-0.5,0.3-0.8,0.3c-0.3,0-0.6-0.1-0.8-0.3c-0.2-0.2-0.3-0.4-0.3-0.6
				V18.7c0-0.2,0.1-0.4,0.3-0.6c0.2-0.2,0.5-0.3,0.8-0.3c0.6,0,0.9,0.7,1.1,2.2c0.5-0.6,1.3-1.2,2.2-1.6c1-0.4,2-0.6,3-0.6h0
				C128.5,17.8,130.3,18.5,131.7,19.9z M122.8,21.2c-1,1-1.5,2.2-1.5,3.7c0,1.3,0.4,2.4,1.2,3.3c0.8,1,1.8,1.6,2.9,1.8
				c0.4,0.1,0.7,0.1,1,0.1c1,0,1.9-0.3,2.8-0.8c1.2-0.8,2-1.9,2.3-3.3c0.1-0.4,0.1-0.7,0.1-1.1c0-1.2-0.4-2.3-1.2-3.3
				c-1-1.2-2.3-1.9-3.9-1.9C125.1,19.6,123.8,20.1,122.8,21.2z"/>
			<path d="M148,22.7c0,0.1,0.1,0.2,0.2,0.3l2.9,5.6l5.3-10.3c0.1-0.2,0.3-0.4,0.6-0.5c0.1,0,0.3-0.1,0.4-0.1c0.2,0,0.4,0,0.6,0.1
				c0.3,0.1,0.4,0.3,0.5,0.6c0,0.1,0,0.2,0,0.2c0,0.1,0,0.2-0.1,0.4l-6.1,12c-0.2,0.4-0.4,0.6-0.7,0.7c-0.1,0.1-0.3,0.1-0.4,0.1
				c-0.2,0-0.5-0.1-0.7-0.2c-0.1-0.1-0.3-0.3-0.5-0.7l0-0.1l0-0.1l-2.7-5.3l-2.9,5.6c-0.2,0.3-0.4,0.5-0.7,0.6
				c-0.1,0-0.2,0.1-0.4,0.1c-0.2,0-0.5-0.1-0.7-0.2c-0.1-0.1-0.2-0.3-0.4-0.6l0-0.1l0-0.1l-3.1-6l-3-6c-0.1-0.1-0.1-0.2-0.1-0.4
				c0-0.1,0-0.2,0-0.2c0.1-0.2,0.2-0.4,0.5-0.5c0.2-0.1,0.4-0.1,0.6-0.1c0.1,0,0.3,0,0.4,0.1c0.3,0.1,0.5,0.2,0.6,0.4l5.3,10.4
				l2.8-5.4l-2.1-4.2c-0.1-0.1-0.1-0.2-0.1-0.3c0-0.1,0-0.2,0-0.3c0.1-0.2,0.2-0.4,0.5-0.5c0.2-0.1,0.4-0.1,0.6-0.1
				c0.1,0,0.3,0,0.4,0.1c0.3,0.1,0.5,0.2,0.6,0.4L148,22.7z"/>
			<path d="M173,19.9c1.4,1.4,2.1,3,2.1,4.9V31c0,0.2-0.1,0.4-0.3,0.6c-0.3,0.2-0.7,0.2-1.2,0c-0.4-0.2-0.5-0.9-0.5-2.1
				c-0.9,1-2.2,1.8-4,2.3c-0.5,0.1-1,0.2-1.6,0.2c-1.4,0-2.8-0.4-4.1-1.2c-1.7-1.1-2.8-2.6-3.1-4.4c-0.1-0.5-0.2-0.9-0.2-1.4
				c0-1.1,0.3-2.2,0.8-3.2c0.8-1.5,2-2.6,3.6-3.2c1-0.4,2-0.6,3-0.6h0C169.8,17.8,171.5,18.5,173,19.9z M164.1,21.1
				c-1.1,1-1.6,2.3-1.6,3.7c0,1.3,0.4,2.4,1.2,3.4c0.8,0.9,1.8,1.5,2.9,1.8c0.4,0.1,0.7,0.1,1,0.1c1,0,1.9-0.3,2.8-0.8
				c1.3-0.8,2-1.9,2.3-3.3c0.1-0.4,0.1-0.8,0.1-1.1c0-1.2-0.4-2.3-1.2-3.3c-1.1-1.2-2.4-1.9-4-1.9C166.3,19.6,165.1,20.1,164.1,21.1
				z"/>
			<path d="M182.1,30.6c-1.4-0.9-2.1-1.9-2.4-3.1l-0.2-3.8l0-4h-1.1c-0.3,0-0.6-0.1-0.8-0.3c-0.2-0.2-0.3-0.4-0.3-0.6
				c0-0.2,0.1-0.4,0.3-0.6c0.2-0.2,0.5-0.3,0.8-0.3h1.1v-5.2c0-0.2,0.1-0.4,0.3-0.6c0.2-0.2,0.5-0.3,0.8-0.3c0.3,0,0.6,0.1,0.8,0.3
				c0.2,0.2,0.3,0.4,0.3,0.6l0,5.2h3.4c0.3,0,0.6,0.1,0.8,0.3c0.2,0.2,0.3,0.4,0.3,0.6c0,0.2-0.1,0.4-0.3,0.6
				c-0.2,0.2-0.5,0.3-0.8,0.3h-3.4v4c0,0.1,0,0.5,0,1.1c0,0.2,0,0.5,0,0.7c0,0.2,0,0.4,0,0.6c0.1,1.2,0.5,2.1,1.2,2.7
				c1,0.9,2.2,1.4,3.6,1.4c0.3,0,0.6,0.1,0.8,0.3c0.2,0.2,0.3,0.4,0.3,0.6c0,0.2-0.1,0.4-0.3,0.7c-0.2,0.2-0.5,0.3-0.8,0.3
				C184.8,31.9,183.4,31.4,182.1,30.6z"/>
			<path d="M194.2,29.4c0.8,0.4,1.6,0.6,2.5,0.6c0.9,0,1.7-0.2,2.5-0.6c0.6-0.3,1.2-0.9,1.8-1.7c0.2-0.3,0.4-0.4,0.8-0.5
				c0.1,0,0.2,0,0.3,0c0.2,0,0.4,0.1,0.6,0.2c0.2,0.1,0.4,0.3,0.4,0.5c0,0.1,0,0.2,0,0.2c0,0.1,0,0.3-0.1,0.4
				c-0.9,1.2-1.8,2-2.6,2.5c-1.1,0.6-2.3,0.9-3.6,0.9c-0.4,0-0.8,0-1.1-0.1c-1.7-0.2-3.1-0.9-4.2-2c-0.7-0.7-1.2-1.4-1.6-2.2
				c0,0,0-0.1-0.1-0.2c0,0,0-0.1-0.1-0.2c-0.3-0.8-0.4-1.6-0.4-2.4c0-0.9,0.2-1.8,0.6-2.7c0.6-1.3,1.4-2.3,2.7-3.1
				c1.2-0.8,2.6-1.2,4.2-1.3h0.3c1.3,0,2.6,0.4,3.8,1.2c1.2,0.8,2.1,1.9,2.7,3.1c0.1,0.3,0.1,0.6,0,0.9c-0.1,0.2-0.3,0.4-0.7,0.6
				l-10.6,4C192.8,28.4,193.4,29,194.2,29.4z M197.5,19.7c-0.3,0-0.5,0-0.8,0c-1.8,0-3.2,0.7-4.2,2.2c-1,1.4-1.4,2.7-1.1,4l9.9-3.9
				C200.3,20.6,199,19.8,197.5,19.7z"/>
			<path d="M206.9,18.7c0-0.2,0.1-0.4,0.3-0.6c0.2-0.2,0.5-0.3,0.8-0.3c0.6,0,0.9,0.7,0.9,2.2c1.2-1.4,3-2.1,5.4-2.2
				c0.3,0,0.6,0.1,0.8,0.3c0.2,0.2,0.3,0.4,0.3,0.6c0,0.2-0.1,0.4-0.3,0.6c-0.2,0.2-0.5,0.3-0.8,0.3c-1.4,0-2.6,0.4-3.5,1.2
				c-0.6,0.7-1,1.3-1.3,1.9c-0.1,0.3-0.3,0.9-0.4,2V31c0,0.2-0.1,0.4-0.3,0.7c-0.2,0.2-0.5,0.3-0.8,0.3c-0.3,0-0.6-0.1-0.8-0.3
				c-0.2-0.2-0.3-0.4-0.3-0.6V18.7z"/>
		</g>
	</g>
	<g>
		<path class="st0" d="M15,0.4c0,0,7.5,12.1,8,12.9c1.4,2.3,3,4.7,3,7.6C26,27,21.1,32,14.9,32C8.8,32,3.8,27,3.8,20.9
			c0-2.9,1.6-5.2,3-7.5C7.5,12.2,15,0.4,15,0.4"/>
		<path class="st1" d="M20.9,31.3c0,3.3-2.7,5.9-5.9,5.9c-3.3,0-5.9-2.7-5.9-5.9c0-3.3,2.7-5.9,5.9-5.9C18.2,25.4,20.9,28,20.9,31.3
			z"/>
		<path class="st2" d="M26.4,17.7c0.4,1.1,0.7,2.4,0.7,3.7c0,6.8-5.5,12.3-12.3,12.3c-6.8,0-12.3-5.5-12.3-12.3
			c0-1.3,0.3-2.6,0.8-3.7C2.1,19.9,1,22.2,1,25c0,7.7,6.2,13.9,13.9,13.9c7.7,0,13.9-6.2,13.9-13.9C28.9,22.2,27.7,19.9,26.4,17.7z"
			/>
		<path class="st2" d="M19.2,31.3c0,2.4-1.9,4.3-4.3,4.3c-2.4,0-4.3-1.9-4.3-4.3c0-2.4,1.9-4.3,4.3-4.3C17.3,27,19.2,28.9,19.2,31.3
			z"/>
	</g>
</g>
</svg>
