<svg id="Satelliet" xmlns="http://www.w3.org/2000/svg" viewBox="0 0 340.53 97.53"><defs><style>.cls-1{fill:#1e1e1c;}</style></defs><path id="r" class="cls-1" d="M344.91,102.09a4.21,4.21,0,0,0,.66,1.44,4,4,0,0,0,1.16,1,3.23,3.23,0,0,0,1.69.41,3.38,3.38,0,0,0,2.36-.78,4.18,4.18,0,0,0,1.18-2.1h1.38a5.49,5.49,0,0,1-1.61,3,4.78,4.78,0,0,1-3.31,1,5.32,5.32,0,0,1-2.31-.47,4.2,4.2,0,0,1-1.59-1.29,5.66,5.66,0,0,1-.9-1.9,8.61,8.61,0,0,1-.3-2.29,8.15,8.15,0,0,1,.3-2.19,5.9,5.9,0,0,1,.9-1.91,4.57,4.57,0,0,1,1.59-1.36,4.92,4.92,0,0,1,2.31-.51,4.41,4.41,0,0,1,3.88,2,6.09,6.09,0,0,1,.87,2,9.11,9.11,0,0,1,.21,2.33H344.7A6,6,0,0,0,344.91,102.09Zm6.82-4.21A4.21,4.21,0,0,0,351,96.6a3.55,3.55,0,0,0-1.11-.89,3.48,3.48,0,0,0-3,0,3.48,3.48,0,0,0-1.12.89,4.79,4.79,0,0,0-.73,1.29,6.56,6.56,0,0,0-.36,1.5H352A5.11,5.11,0,0,0,351.73,97.88Z" transform="translate(-28.41 -12.46)"/><path id="r-2" data-name="r" class="cls-1" d="M331.22,94.54v2.64h0a4.14,4.14,0,0,1,4.26-2.8v1.38a4.25,4.25,0,0,0-1.7.25,3.84,3.84,0,0,0-1.33.85,3.65,3.65,0,0,0-.86,1.3,4.22,4.22,0,0,0-.31,1.65v6H330V94.54Z" transform="translate(-28.41 -12.46)"/><path id="u" class="cls-1" d="M318.64,105.83v-2h0a3.9,3.9,0,0,1-1.59,1.74,4.52,4.52,0,0,1-2.31.6,5.15,5.15,0,0,1-1.82-.29,3,3,0,0,1-1.23-.85,3.51,3.51,0,0,1-.69-1.33,7,7,0,0,1-.22-1.8V94.54h1.38v7.35a3.72,3.72,0,0,0,.71,2.32,2.92,2.92,0,0,0,2.31.78,2.85,2.85,0,0,0,1.53-.38,3,3,0,0,0,1.05-1,4.64,4.64,0,0,0,.62-1.45,7.27,7.27,0,0,0,.19-1.68V94.54h1.38v11.29Z" transform="translate(-28.41 -12.46)"/><path id="t" class="cls-1" d="M301.34,94.54V95.7H299v7.61a2.36,2.36,0,0,0,.19,1.06c.12.25.43.4.93.43s.78,0,1.18-.07v1.16l-.61,0c-.21,0-.41,0-.62,0a2,2,0,0,1-2.45-2.51V95.7h-2V94.54h2v-3.4H299v3.4Z" transform="translate(-28.41 -12.46)"/><path id="i" class="cls-1" d="M286.77,90.2v2.21h-1.38V90.2Zm0,4.34v11.29h-1.38V94.54Z" transform="translate(-28.41 -12.46)"/><path id="n" class="cls-1" d="M267.54,94.54v1.94h0a3.33,3.33,0,0,1,1.4-1.65,4.17,4.17,0,0,1,2.21-.62,5.65,5.65,0,0,1,2,.3,3,3,0,0,1,2,2.24,7.71,7.71,0,0,1,.2,1.81v7.27H274v-7a7.19,7.19,0,0,0-.13-1.35,3.1,3.1,0,0,0-.46-1.08,2.36,2.36,0,0,0-.89-.72,3.2,3.2,0,0,0-1.39-.26,3.65,3.65,0,0,0-1.48.29,3.27,3.27,0,0,0-1.09.81,3.69,3.69,0,0,0-.7,1.23,4.78,4.78,0,0,0-.27,1.54v6.59h-1.38V94.54Z" transform="translate(-28.41 -12.46)"/><path id="r-3" data-name="r" class="cls-1" d="M252.73,94.54v2.64h0a4.15,4.15,0,0,1,4.27-2.8v1.38a4.27,4.27,0,0,0-1.71.25,3.8,3.8,0,0,0-1.32.85,3.67,3.67,0,0,0-.87,1.3,4.4,4.4,0,0,0-.3,1.65v6h-1.38V94.54Z" transform="translate(-28.41 -12.46)"/><path id="u-2" data-name="u" class="cls-1" d="M240.15,105.83v-2h-.05a3.88,3.88,0,0,1-1.58,1.74,4.57,4.57,0,0,1-2.31.6,5.2,5.2,0,0,1-1.83-.29,3,3,0,0,1-1.22-.85,3.25,3.25,0,0,1-.69-1.33,6.57,6.57,0,0,1-.22-1.8V94.54h1.38v7.35a3.66,3.66,0,0,0,.71,2.32,3.58,3.58,0,0,0,3.84.4,3.19,3.19,0,0,0,1-1,4.63,4.63,0,0,0,.61-1.45,7.28,7.28,0,0,0,.2-1.68V94.54h1.38v11.29Z" transform="translate(-28.41 -12.46)"/><path id="f" class="cls-1" d="M221.29,95.7v10.13h-1.38V95.7H218V94.54h1.92v-1a8,8,0,0,1,.11-1.34,2.47,2.47,0,0,1,.42-1,2,2,0,0,1,.84-.68,3.35,3.35,0,0,1,1.36-.24,4.91,4.91,0,0,1,.57,0l.59.06v1.18l-.52-.07a2.59,2.59,0,0,0-.48,0,1.78,1.78,0,0,0-.88.18,1.13,1.13,0,0,0-.45.47,2.06,2.06,0,0,0-.16.69c0,.26,0,.54,0,.85v1h2.23V95.7Z" transform="translate(-28.41 -12.46)"/><path id="y" class="cls-1" d="M188.27,94.54l3.72,9.62,3.48-9.62h1.38l-4.9,13a10.4,10.4,0,0,1-.57,1.19,2.71,2.71,0,0,1-.58.75,2,2,0,0,1-.74.39A4.13,4.13,0,0,1,189,110l-.65,0a1.18,1.18,0,0,1-.4-.08v-1.16l.46.08a3.75,3.75,0,0,0,.48,0,1.83,1.83,0,0,0,.75-.13,1.57,1.57,0,0,0,.51-.36,2.12,2.12,0,0,0,.38-.56l.33-.72.48-1.27-4.51-11.24Z" transform="translate(-28.41 -12.46)"/><path id="t-2" data-name="t" class="cls-1" d="M178.65,94.54V95.7h-2.3v7.61a2.36,2.36,0,0,0,.19,1.06c.12.25.43.4.93.43a11.67,11.67,0,0,0,1.18-.07v1.16l-.61,0c-.21,0-.41,0-.62,0a2,2,0,0,1-2.45-2.51V95.7h-2V94.54h2v-3.4h1.38v3.4Z" transform="translate(-28.41 -12.46)"/><path id="i-2" data-name="i" class="cls-1" d="M164.08,90.2v2.21H162.7V90.2Zm0,4.34v11.29H162.7V94.54Z" transform="translate(-28.41 -12.46)"/><path id="l" class="cls-1" d="M152.59,90.2v15.63h-1.38V90.2Z" transform="translate(-28.41 -12.46)"/><path id="a" class="cls-1" d="M132.68,96.29a3.3,3.3,0,0,1,1-1.19,4,4,0,0,1,1.41-.67,6.7,6.7,0,0,1,1.79-.22,8.35,8.35,0,0,1,1.49.14,3.4,3.4,0,0,1,1.33.54,2.9,2.9,0,0,1,1,1.1,4.08,4.08,0,0,1,.37,1.85v6q0,.84.81.84a1,1,0,0,0,.43-.09v1.16l-.42.06a3.09,3.09,0,0,1-.47,0,2,2,0,0,1-.84-.15,1.12,1.12,0,0,1-.5-.4,1.68,1.68,0,0,1-.23-.63,6.3,6.3,0,0,1-.05-.79h0a8.85,8.85,0,0,1-.76,1,3.82,3.82,0,0,1-.85.71A3.88,3.88,0,0,1,137,106a5.92,5.92,0,0,1-1.43.15,5.75,5.75,0,0,1-1.47-.18,3.43,3.43,0,0,1-1.21-.6,2.91,2.91,0,0,1-.81-1,3.55,3.55,0,0,1-.29-1.48,2.93,2.93,0,0,1,.52-1.85,3.45,3.45,0,0,1,1.39-1,8.43,8.43,0,0,1,2-.49l2.2-.27c.29,0,.54-.07.76-.11a1.45,1.45,0,0,0,.55-.23,1,1,0,0,0,.34-.45,1.94,1.94,0,0,0,.12-.74,2.56,2.56,0,0,0-.23-1.15,1.81,1.81,0,0,0-.63-.71,2.41,2.41,0,0,0-.95-.36,5.9,5.9,0,0,0-1.14-.1,3.47,3.47,0,0,0-2.15.62,2.46,2.46,0,0,0-.87,2h-1.38A4.57,4.57,0,0,1,132.68,96.29Zm6.9,3.37a.79.79,0,0,1-.51.34,4.35,4.35,0,0,1-.65.16c-.59.1-1.19.19-1.81.27a9.84,9.84,0,0,0-1.69.36,3.25,3.25,0,0,0-1.26.69,1.64,1.64,0,0,0-.49,1.28,2,2,0,0,0,.2.93,2.37,2.37,0,0,0,.56.7,2.29,2.29,0,0,0,.81.45,3,3,0,0,0,.94.15,4.73,4.73,0,0,0,1.51-.24,3.69,3.69,0,0,0,1.26-.7,3.33,3.33,0,0,0,.85-1.11,3.43,3.43,0,0,0,.32-1.49V99.66Z" transform="translate(-28.41 -12.46)"/><path id="t-3" data-name="t" class="cls-1" d="M123,94.54V95.7h-2.3v7.61a2.51,2.51,0,0,0,.19,1.06c.12.25.43.4.93.43a11.67,11.67,0,0,0,1.18-.07v1.16l-.61,0c-.21,0-.41,0-.61,0a2.73,2.73,0,0,1-1.93-.53,2.71,2.71,0,0,1-.52-2V95.7h-2V94.54h2v-3.4h1.37v3.4Z" transform="translate(-28.41 -12.46)"/><path id="i-3" data-name="i" class="cls-1" d="M108.4,90.2v2.21H107V90.2Zm0,4.34v11.29H107V94.54Z" transform="translate(-28.41 -12.46)"/><path id="p" class="cls-1" d="M88.27,94.54v2.14h0a3.68,3.68,0,0,1,1.56-1.83,4.7,4.7,0,0,1,2.46-.64,4.9,4.9,0,0,1,2.24.48A4.49,4.49,0,0,1,96.17,96a5.54,5.54,0,0,1,.94,1.9,8.61,8.61,0,0,1,0,4.58,5.54,5.54,0,0,1-.94,1.9,4.36,4.36,0,0,1-1.59,1.29,5,5,0,0,1-2.24.47,5.09,5.09,0,0,1-1.22-.15,4.39,4.39,0,0,1-1.14-.46,3.82,3.82,0,0,1-.93-.77,3.07,3.07,0,0,1-.62-1.07h-.05V110H87V94.54Zm7.56,3.9a5,5,0,0,0-.65-1.54A3.81,3.81,0,0,0,94,95.79a3.23,3.23,0,0,0-1.69-.42,4.15,4.15,0,0,0-1.9.39,3.32,3.32,0,0,0-1.23,1,4.2,4.2,0,0,0-.64,1.53,8.51,8.51,0,0,0-.19,1.84,7.39,7.39,0,0,0,.21,1.74,4.39,4.39,0,0,0,.68,1.54,3.73,3.73,0,0,0,1.22,1.11,3.78,3.78,0,0,0,1.85.42,3.23,3.23,0,0,0,1.69-.42,3.81,3.81,0,0,0,1.15-1.11,5,5,0,0,0,.65-1.54,7.31,7.31,0,0,0,0-3.48Z" transform="translate(-28.41 -12.46)"/><path id="s" class="cls-1" d="M75.54,96.73A2.3,2.3,0,0,0,74.9,96a2.52,2.52,0,0,0-.93-.45,4.14,4.14,0,0,0-1.12-.14,4.2,4.2,0,0,0-.93.1,2.78,2.78,0,0,0-.86.32,1.87,1.87,0,0,0-.64.61,1.62,1.62,0,0,0-.24.91,1.31,1.31,0,0,0,.23.78,2.14,2.14,0,0,0,.58.54,4.2,4.2,0,0,0,.77.36l.76.23,1.84.41a5.66,5.66,0,0,1,1.17.32,3.62,3.62,0,0,1,1,.6,3,3,0,0,1,.73.92,2.79,2.79,0,0,1,.29,1.29,2.83,2.83,0,0,1-.42,1.57,3.43,3.43,0,0,1-1.06,1,4.6,4.6,0,0,1-1.46.58,8,8,0,0,1-1.59.17,5.16,5.16,0,0,1-3.23-.94,4,4,0,0,1-1.41-3h1.38a2.69,2.69,0,0,0,1,2.11,3.65,3.65,0,0,0,2.31.71,4.72,4.72,0,0,0,1-.11,3.17,3.17,0,0,0,1-.37,2.3,2.3,0,0,0,.75-.67,1.62,1.62,0,0,0,.3-1A1.54,1.54,0,0,0,76,102a1.79,1.79,0,0,0-.56-.57,3.49,3.49,0,0,0-.8-.38c-.3-.11-.6-.19-.91-.27L72,100.4a9,9,0,0,1-1.24-.41,4,4,0,0,1-1-.56,2.49,2.49,0,0,1-.67-.84,2.72,2.72,0,0,1-.24-1.21,2.77,2.77,0,0,1,.38-1.47,3.12,3.12,0,0,1,1-1,4.63,4.63,0,0,1,1.37-.55,7,7,0,0,1,1.5-.17,5.39,5.39,0,0,1,1.58.22,3.61,3.61,0,0,1,1.29.67,3.32,3.32,0,0,1,.89,1.14,4.1,4.1,0,0,1,.37,1.6H75.8A2.59,2.59,0,0,0,75.54,96.73Z" transform="translate(-28.41 -12.46)"/><path id="o" class="cls-1" d="M56.5,94.69A5,5,0,0,1,58.17,96a5.76,5.76,0,0,1,1,1.89,7.8,7.8,0,0,1,0,4.62,5.76,5.76,0,0,1-1,1.89,4.81,4.81,0,0,1-1.67,1.28,5.81,5.81,0,0,1-4.58,0,4.81,4.81,0,0,1-1.67-1.28,5.58,5.58,0,0,1-1-1.89,7.8,7.8,0,0,1,0-4.62,5.58,5.58,0,0,1,1-1.89,5,5,0,0,1,1.67-1.29,5.7,5.7,0,0,1,4.58,0Zm-4,1.09a3.83,3.83,0,0,0-1.23,1.1,4.91,4.91,0,0,0-.75,1.54,6.32,6.32,0,0,0,0,3.52,4.91,4.91,0,0,0,.75,1.54,3.71,3.71,0,0,0,1.23,1.1,3.85,3.85,0,0,0,3.46,0,3.71,3.71,0,0,0,1.23-1.1,4.91,4.91,0,0,0,.75-1.54,6.32,6.32,0,0,0,0-3.52,4.91,4.91,0,0,0-.75-1.54,3.83,3.83,0,0,0-1.23-1.1,3.85,3.85,0,0,0-3.46,0Z" transform="translate(-28.41 -12.46)"/><path id="h" class="cls-1" d="M31.61,90.2v6.28h0a3.39,3.39,0,0,1,1.4-1.65,4.19,4.19,0,0,1,2.21-.62,5.65,5.65,0,0,1,2,.3,3.16,3.16,0,0,1,1.28.87,3.22,3.22,0,0,1,.68,1.37,7.71,7.71,0,0,1,.2,1.81v7.27H38v-7a6.44,6.44,0,0,0-.13-1.35,2.92,2.92,0,0,0-.46-1.08,2.29,2.29,0,0,0-.89-.72,3.17,3.17,0,0,0-1.39-.26,3.6,3.6,0,0,0-1.47.29,3.31,3.31,0,0,0-1.1.81,3.69,3.69,0,0,0-.7,1.23,5.07,5.07,0,0,0-.27,1.54v6.59H30.23V90.2Z" transform="translate(-28.41 -12.46)"/><rect id="streep" class="cls-1" x="1.59" y="62.51" width="323.45" height="2.33"/><path id="original_R" data-name="original R" class="cls-1" d="M365.44,16.52a1,1,0,0,1-.12.53.72.72,0,0,1-.34.28,1.69,1.69,0,0,1-.48.12H363V15.64h1.18a2.35,2.35,0,0,1,.45,0,1.23,1.23,0,0,1,.41.12.73.73,0,0,1,.29.26.89.89,0,0,1,.11.46m.46,1.17a1.42,1.42,0,0,0,.43-1.13,1.49,1.49,0,0,0-.49-1.23,2.38,2.38,0,0,0-1.52-.4H362.1v5.72h.9V18.18h.94l1.57,2.47h.95l-1.64-2.54a1.93,1.93,0,0,0,1.08-.42" transform="translate(-28.41 -12.46)"/><path id="original_circle" data-name="original circle" class="cls-1" d="M368.06,17.76a4.37,4.37,0,0,1-.32,1.68,4.14,4.14,0,0,1-.85,1.34,4,4,0,0,1-1.28.88A3.8,3.8,0,0,1,364,22a3.85,3.85,0,0,1-1.6-.33,4,4,0,0,1-1.3-.88,4.31,4.31,0,0,1-.85-1.34,4.37,4.37,0,0,1-.3-1.68,4.18,4.18,0,0,1,.3-1.63,4.11,4.11,0,0,1,.85-1.32A4.12,4.12,0,0,1,364,13.6a4,4,0,0,1,2.87,1.21,4,4,0,0,1,.85,1.32,4.19,4.19,0,0,1,.32,1.63m.88,0a4.84,4.84,0,0,0-1.45-3.48,5.21,5.21,0,0,0-1.57-1,4.85,4.85,0,0,0-1.9-.38,4.93,4.93,0,0,0-1.91.38,5.21,5.21,0,0,0-1.57,1,4.85,4.85,0,0,0-1.47,3.48,5,5,0,0,0,.4,2,4.81,4.81,0,0,0,2.64,2.58,4.92,4.92,0,0,0,1.91.37,4.84,4.84,0,0,0,4.53-3,5,5,0,0,0,.39-2" transform="translate(-28.41 -12.46)"/><polygon id="T-4" data-name="T" class="cls-1" points="292.8 9.42 303.92 9.42 303.92 46.24 313.86 46.24 313.86 9.42 324.98 9.42 324.98 1.07 292.8 1.07 292.8 9.42"/><polygon id="E" class="cls-1" points="263.99 26.82 285.87 26.82 285.87 19.1 263.99 19.1 263.99 9.42 287.83 9.42 287.83 1.07 254.06 1.07 254.06 46.24 288.34 46.24 288.34 37.89 263.99 37.89 263.99 26.82"/><rect id="I-4" data-name="I" class="cls-1" x="232.29" y="1.07" width="9.93" height="45.16"/><polygon id="L-2" data-name="L" class="cls-1" points="207.64 1.07 197.71 1.07 197.71 46.24 224.83 46.24 224.83 37.89 207.64 37.89 207.64 1.07"/><polygon id="L-3" data-name="L" class="cls-1" points="174.27 1.07 164.34 1.07 164.34 46.24 191.45 46.24 191.45 37.89 174.27 37.89 174.27 1.07"/><polygon id="E-2" data-name="E" class="cls-1" points="130.18 26.82 152.06 26.82 152.06 19.1 130.18 19.1 130.18 9.42 154.03 9.42 154.03 1.07 120.25 1.07 120.25 46.24 154.53 46.24 154.53 37.89 130.18 37.89 130.18 26.82"/><polygon id="T-5" data-name="T" class="cls-1" points="81.59 9.42 92.71 9.42 92.71 46.24 102.65 46.24 102.65 9.42 113.77 9.42 113.77 1.07 81.59 1.07 81.59 9.42"/><path id="A-2" data-name="A" class="cls-1" d="M96.09,41.24H84.39l5.88-16.58h.13ZM112.41,58.7,95.52,13.53H85.34L68.2,58.7h10L81.8,48.64H98.68l3.41,10.06Z" transform="translate(-28.41 -12.46)"/><path id="S-2" data-name="S" class="cls-1" d="M53,32.13C41.7,29.22,39.55,28.78,39.55,25.3c0-3.8,3.67-5.13,6.83-5.13,4.74,0,8.6,1.4,8.92,6.84h9.61c0-10.44-8.66-14.55-18.08-14.55-8.17,0-16.9,4.43-16.9,13.66,0,8.48,6.77,11.07,13.48,12.84s13.41,2.59,13.41,7.47c0,4.61-5.32,5.62-8.79,5.62-5.32,0-10-2.34-10-8.35H28.42c-.13,11.13,9.23,16.07,19.23,16.07,12.27,0,18.78-6.2,18.78-14.49C66.43,35,56.31,33,53,32.13" transform="translate(-28.41 -12.46)"/></svg>