<?xml version="1.0" encoding="utf-8"?>
<!-- Generator: Adobe Illustrator 28.0.0, SVG Export Plug-In . SVG Version: 6.00 Build 0)  -->
<svg version="1.1" id="Capa_1" xmlns="http://www.w3.org/2000/svg" xmlns:xlink="http://www.w3.org/1999/xlink" x="0px" y="0px"
	 viewBox="0 0 512 512" style="enable-background:new 0 0 512 512;" xml:space="preserve">
<style type="text/css">
	.st0{fill:#4D7D6B;}
</style>
<g>
	<path class="st0" d="M500.3,414.2h-8.2V149.5c0-27.1-22-49.1-49.1-49.1h-26.6c-4.1,0-7.5,3.4-7.5,7.5s3.4,7.5,7.5,7.5H443
		c18.8,0,34.1,15.3,34.1,34.1v264.7H309.1c-5.1,0-9.9,2.5-12.8,6.8l-2.3,3.3c-2.1,3.1-5.6,4.9-9.3,4.9h-58.6c-3.7,0-7.2-1.8-9.3-4.9
		l-2.3-3.3c-2.9-4.2-7.7-6.8-12.8-6.8h-80c-4.1,0-7.5,3.4-7.5,7.5s3.4,7.5,7.5,7.5h80c0.1,0,0.3,0.1,0.4,0.2l2.3,3.3
		c4.9,7.2,13,11.5,21.7,11.5h58.6c8.7,0,16.8-4.3,21.7-11.5l2.3-3.3c0.1-0.1,0.2-0.2,0.4-0.2H497v8.1c0,20-16.3,36.3-36.3,36.3H51.3
		c-20,0-36.3-16.3-36.3-36.3v-8.1h74.8c4.1,0,7.5-3.4,7.5-7.5s-3.4-7.5-7.5-7.5H35V149.5c0-18.8,15.3-34.1,34.1-34.1h22.1
		c4.1,0,7.5-3.4,7.5-7.5s-3.4-7.5-7.5-7.5H69c-27.1,0-49.1,22-49.1,49.1v264.7h-8.2c-6.5,0-11.7,5.3-11.7,11.7v11.4
		c0,28.3,23,51.3,51.3,51.3h409.5c28.3,0,51.3-23,51.3-51.3v-11.4C512,419.5,506.7,414.2,500.3,414.2L500.3,414.2z"/>
	<path class="st0" d="M69,147.5h48.4c4.1,0,7.5-3.4,7.5-7.5c0-4.1-3.4-7.5-7.5-7.5H69c-9.4,0-17,7.6-17,17v240.2
		c0,4.1,3.4,7.5,7.5,7.5h393c4.1,0,7.5-3.4,7.5-7.5v-63.6c0-4.1-3.4-7.5-7.5-7.5s-7.5,3.4-7.5,7.5v56.1H67V149.5
		C67,148.4,67.9,147.5,69,147.5L69,147.5z"/>
	<path class="st0" d="M460,149.5c0-9.4-7.6-17-17-17h-24.3c-4.1,0-7.5,3.4-7.5,7.5c0,4.1,3.4,7.5,7.5,7.5H443c1.1,0,2,0.9,2,2v144.6
		c0,4.1,3.4,7.5,7.5,7.5s7.5-3.4,7.5-7.5V149.5z"/>
	<path class="st0" d="M125.6,121.5l17.7,9.5v70c0,25.6,20.8,46.4,46.4,46.4h132.5c25.6,0,46.4-20.8,46.4-46.4v-70.5l10.9-5.8v133.7
		c-11.4,3.3-19.8,13.8-19.8,26.2c0,15.1,12.2,27.3,27.3,27.3c15.1,0,27.3-12.2,27.3-27.3c0-12.4-8.4-23-19.8-26.2V106.1c0,0,0,0,0,0
		c0-6.4-3.5-12.3-9.2-15.4L263.7,25.5c-5.2-2.8-11.3-2.8-16.5,0L125.6,90.8c-5.7,3-9.2,8.9-9.2,15.4
		C116.4,112.6,119.9,118.5,125.6,121.5L125.6,121.5z M399.4,284.6c0,6.8-5.5,12.3-12.3,12.3c-6.8,0-12.3-5.5-12.3-12.3
		c0-6.8,5.5-12.3,12.3-12.3C393.9,272.3,399.4,277.8,399.4,284.6z M132.7,104l121.7-65.3c0.7-0.4,1.6-0.4,2.3,0L378.3,104
		c1.1,0.6,1.3,1.6,1.3,2.1c0,0.5-0.2,1.5-1.3,2.1l-121.7,65.3c-0.7,0.4-1.6,0.4-2.3,0l-34.5-18.5c-3.7-2-8.2-0.6-10.2,3.1
		c-2,3.7-0.6,8.2,3.1,10.2l34.5,18.5c2.6,1.4,5.4,2.1,8.2,2.1s5.7-0.7,8.2-2.1l89.9-48.3V201c0,17.3-14.1,31.4-31.4,31.4H189.8
		c-17.3,0-31.4-14.1-31.4-31.4v-61.9l25.3,13.6c3.7,2,8.2,0.6,10.2-3.1c2-3.7,0.6-8.2-3.1-10.2l-58.1-31.2c-1.1-0.6-1.3-1.6-1.3-2.1
		C131.4,105.6,131.6,104.6,132.7,104L132.7,104z"/>
</g>
</svg>
