<?xml version="1.0" encoding="utf-8"?>
<!-- Generator: Adobe Illustrator 28.0.0, SVG Export Plug-In . SVG Version: 6.00 Build 0)  -->
<svg version="1.1" id="_x31__x2C_5" xmlns="http://www.w3.org/2000/svg" xmlns:xlink="http://www.w3.org/1999/xlink" x="0px"
	 y="0px" viewBox="0 0 512 512" style="enable-background:new 0 0 512 512;" xml:space="preserve">
<style type="text/css">
	.st0{fill:#4D7D6B;}
</style>
<path class="st0" d="M197.3,426.7h-96c-20.6,0-37.3-16.7-37.3-37.3v-96c0-20.6,16.7-37.3,37.3-37.3h96c20.6,0,37.3,16.7,37.3,37.3
	v96C234.7,409.9,217.9,426.7,197.3,426.7z M101.3,288c-2.9,0-5.3,2.4-5.3,5.3v96c0,2.9,2.4,5.3,5.3,5.3h96c2.9,0,5.3-2.4,5.3-5.3
	v-96c0-2.9-2.4-5.3-5.3-5.3H101.3z"/>
<path class="st0" d="M357.3,405.3c-4.6,0-8.9-1.9-12-5.4l-42.7-48c-5.9-6.6-5.3-16.7,1.3-22.6c6.6-5.9,16.7-5.3,22.6,1.3l29.9,33.6
	l62.8-80.8c5.4-7,15.4-8.3,22.5-2.8c7,5.4,8.2,15.5,2.8,22.4l-74.7,96c-2.9,3.8-7.4,6-12.1,6.2C357.7,405.3,357.5,405.3,357.3,405.3
	L357.3,405.3z"/>
<path class="st0" d="M453.3,512H58.7C26.3,512,0,485.7,0,453.3v-352C0,69,26.3,42.7,58.7,42.7h394.7c32.4,0,58.7,26.3,58.7,58.7v352
	C512,485.7,485.7,512,453.3,512z M58.7,74.7C44,74.7,32,86.6,32,101.3v352C32,468,44,480,58.7,480h394.7c14.7,0,26.7-12,26.7-26.7
	v-352c0-14.7-12-26.7-26.7-26.7H58.7z"/>
<path class="st0" d="M496,202.7H16c-8.8,0-16-7.2-16-16s7.2-16,16-16h480c8.8,0,16,7.2,16,16S504.8,202.7,496,202.7z"/>
<path class="st0" d="M122.7,128c-8.8,0-16-7.2-16-16V16c0-8.8,7.2-16,16-16s16,7.2,16,16v96C138.7,120.8,131.5,128,122.7,128z"/>
<path class="st0" d="M389.3,128c-8.8,0-16-7.2-16-16V16c0-8.8,7.2-16,16-16s16,7.2,16,16v96C405.3,120.8,398.2,128,389.3,128z"/>
</svg>
